<svg width="12" height="13" viewBox="0 0 12 13" fill="none" xmlns="http://www.w3.org/2000/svg">
<path d="M7.35524 11.6914C7.1248 11.9218 6.83926 12.0371 6.49861 12.0371C6.15796 12.0371 5.87242 11.9218 5.64198 11.6914L0.351898 6.40132C0.241688 6.29111 0.154021 6.16086 0.088897 6.01057C0.023773 5.86028 -0.00878906 5.69998 -0.00878906 5.52965V1.23147C-0.00878906 0.900836 0.108935 0.617796 0.344384 0.382348C0.579832 0.146899 0.862872 0.0291748 1.1935 0.0291748H5.49169C5.66202 0.0291748 5.82232 0.0617368 5.97261 0.126861C6.12289 0.191985 6.25314 0.279652 6.36335 0.389862L11.6534 5.69497C11.8839 5.92541 11.9991 6.20845 11.9991 6.54409C11.9991 6.87973 11.8839 7.16277 11.6534 7.3932L7.35524 11.6914ZM6.49861 10.8498L10.7968 6.5516L5.49169 1.23147H1.1935V5.52965L6.49861 10.8498ZM2.69637 3.63605C2.94684 3.63605 3.15975 3.54838 3.33508 3.37305C3.51042 3.19771 3.59808 2.98481 3.59808 2.73433C3.59808 2.48385 3.51042 2.27095 3.33508 2.09561C3.15975 1.92028 2.94684 1.83261 2.69637 1.83261C2.44589 1.83261 2.23298 1.92028 2.05765 2.09561C1.88231 2.27095 1.79465 2.48385 1.79465 2.73433C1.79465 2.98481 1.88231 3.19771 2.05765 3.37305C2.23298 3.54838 2.44589 3.63605 2.69637 3.63605Z" fill="#DD2D4A"/>
</svg>
