<svg width="8" height="13" viewBox="0 0 8 13" fill="none" xmlns="http://www.w3.org/2000/svg">
<path d="M0.849954 1.71787C0.849954 1.41054 0.956427 1.1504 1.16937 0.937459C1.38232 0.724514 1.64245 0.618042 1.94978 0.618042L6.44265 0.618042C6.74998 0.618042 7.01012 0.724514 7.22306 0.937459C7.43601 1.1504 7.54248 1.41054 7.54248 1.71787L7.54248 11.0781C7.54248 11.3854 7.43601 11.6455 7.22306 11.8585C7.01012 12.0714 6.74998 12.1779 6.44265 12.1779L1.94978 12.1779C1.64245 12.1779 1.38232 12.0714 1.16937 11.8585C0.956426 11.6455 0.849954 11.3854 0.849954 11.0781L0.849954 1.71787ZM1.76256 1.71787L1.76256 11.0781C1.76256 11.1249 1.78206 11.1678 1.82106 11.2068C1.86007 11.2458 1.90298 11.2653 1.94978 11.2653L6.44265 11.2653C6.48946 11.2653 6.53236 11.2458 6.57137 11.2068C6.61037 11.1678 6.62987 11.1249 6.62987 11.0781L6.62987 9.28792L4.43024 9.28792L4.43024 8.37532L6.62987 8.37532L6.62987 6.85426L4.43024 6.85426L4.43024 5.94167L6.62987 5.94167L6.62987 4.4206L4.43024 4.4206L4.43024 3.50801L6.62987 3.50801L6.62987 1.71787C6.62987 1.67107 6.61037 1.62816 6.57137 1.58915C6.53237 1.55015 6.48946 1.53065 6.44265 1.53065L1.94978 1.53065C1.90298 1.53065 1.86007 1.55015 1.82106 1.58915C1.78206 1.62816 1.76256 1.67107 1.76256 1.71787Z" fill="#89898C"/>
</svg>
